<svg width="182" height="52" viewBox="0 0 182 52" fill="none" xmlns="http://www.w3.org/2000/svg">
<g clip-path="url(#clip0_1271_1651)">
<path d="M9.76838 29.2629V25.4008L7.17023 27.0376C7.94114 27.8882 8.81608 28.6344 9.76838 29.2629ZM11.7797 8.44643L11.7397 30.3114C13.2948 30.9533 14.9647 31.2796 16.6505 31.2796C18.323 31.2796 19.9662 30.9533 21.508 30.3114V14.5098L11.7797 8.44643ZM22.5137 12.8595C23.8448 12.0358 25.1785 11.2093 26.5096 10.3855C25.7787 9.46813 24.2369 7.78045 21.7054 6.68119C21.0919 6.41908 19.2113 5.65948 16.6532 5.65948C14.7459 5.65948 13.2201 6.0794 12.2385 6.43245C15.6715 8.57748 19.0913 10.7252 22.5137 12.8595ZM6.75144 10.3828L9.85907 12.3193V7.64405C8.68537 8.39294 7.62637 9.31033 6.75144 10.3828ZM9.76838 14.5472L5.65509 11.9823C3.14765 16.1707 3.26502 21.4343 5.94318 25.5185L9.75504 23.1621V14.5472H9.76838ZM23.4793 14.5472C23.466 19.4578 23.4526 24.3523 23.4393 29.2629C24.3676 28.6745 25.816 27.5993 27.0698 25.8073C27.7606 24.8257 29.3932 22.2073 29.3932 18.503C29.3932 15.3335 28.1928 13.004 27.5899 11.9823C26.2215 12.8462 24.8504 13.6967 23.4793 14.5472Z" fill="#23BAD9"/>
<path d="M33.2584 30.3622V8.4063L27.5926 11.9796C28.1528 12.9478 28.5849 13.9829 28.8863 15.0554C29.1878 16.1814 29.3425 17.3341 29.3425 18.4976C29.3291 19.5969 29.1851 20.6961 28.9237 21.7713C28.1154 24.8739 26.1415 27.5458 23.426 29.2602V29.2201V36.4469L33.2584 30.3622ZM26.5096 10.3828L32.8822 6.42976L22.5137 0.00267396C19.0806 2.15039 15.6449 4.28473 12.2251 6.42976C12.2518 6.44314 12.2785 6.45651 12.3025 6.46988C15.2528 5.88147 16.4798 5.67017 16.6505 5.68355C16.7546 5.69692 16.8452 5.69692 16.9386 5.71029C17.032 5.72366 17.1227 5.73704 17.2267 5.73704C17.5281 5.72366 17.8136 5.75041 18.1016 5.77716C18.4031 5.81728 18.6885 5.86809 18.9766 5.94833C19.1473 5.98845 19.3554 5.98845 19.5261 6.0259C19.8915 6.11683 20.257 6.22114 20.6224 6.36557C20.6998 6.40569 20.7931 6.40569 20.8705 6.44314C21.2626 6.57419 21.6414 6.73199 22.0069 6.90049C22.0469 6.94061 22.0842 6.95399 22.1376 6.94061L23.2739 7.56915C23.3139 7.56915 23.3139 7.60926 23.3513 7.60926C23.7301 7.858 24.1088 8.12012 24.4876 8.40897L25.4933 9.29962L25.5333 9.33974C25.8214 9.62859 26.1201 9.96827 26.4216 10.3079C26.4429 10.332 26.4829 10.3588 26.5096 10.3828ZM9.85907 5.63005L14.8473 2.51413L10.774 0L0.45881 6.42709C2.57414 7.74835 4.67612 9.08565 6.79145 10.4069C7.21025 9.93617 7.69306 9.42533 8.27991 8.91448C8.82942 8.417 9.36292 8.01046 9.85907 7.67078C9.85907 6.99411 9.85907 6.31208 9.85907 5.63005ZM5.6551 11.9823L0 8.40897V29.2255C1.99796 27.9818 3.98257 26.7381 5.98053 25.5078C5.35367 24.5262 3.91855 22.012 3.90522 18.503C3.90522 15.3335 5.06825 13.0013 5.6551 11.9823ZM7.17023 27.0376L0.877606 30.8998L9.77104 36.4523V29.2656C8.81608 28.6344 7.94114 27.8882 7.17023 27.0376ZM11.7397 30.298V36.4523L21.508 30.3782C21.508 30.3515 21.508 30.3247 21.508 30.314C21.2199 30.4317 20.8412 30.5761 20.385 30.7206C20.241 30.7607 19.6008 30.9559 18.7125 31.1004C18.1897 31.1779 17.5255 31.2582 16.7546 31.2715C16.0103 31.2715 15.3835 31.218 14.9006 31.1539C14.3511 31.0897 13.4895 30.9693 12.4332 30.5922C12.1451 30.4665 11.9104 30.3755 11.7397 30.298ZM21.5587 32.55L18.4111 34.4757L21.5587 36.4121V32.55Z" fill="#15384E"/>
<path d="M149.228 31.3545H147.907C142.663 31.3545 139.273 28.0834 139.273 23.0177V6.69189C139.273 6.13825 139.689 5.72101 140.241 5.72101H142.418C142.957 5.72101 143.349 6.12755 143.349 6.69189V23.0177C143.349 25.925 145.075 27.5913 148.086 27.5913H149.156C152.122 27.5913 153.893 25.8822 153.893 23.0177V6.69189C153.893 6.13022 154.285 5.72101 154.824 5.72101H157.036C157.574 5.72101 157.967 6.12755 157.967 6.69189V23.0177C157.972 27.9283 154.376 31.3545 149.228 31.3545Z" fill="#15384E"/>
<path d="M129.488 31.2983H127.277C126.728 31.2983 126.346 30.9132 126.346 30.3649V6.69458C126.346 6.13291 126.738 5.72369 127.277 5.72369H129.488C130.027 5.72369 130.419 6.13024 130.419 6.69458V30.3649C130.419 30.9158 130.038 31.2983 129.488 31.2983Z" fill="#15384E"/>
<path d="M112.23 31.2796H110.056C109.495 31.2796 109.087 30.8864 109.087 30.3461V9.57511H102.813C102.253 9.57511 101.845 9.18195 101.845 8.64168V6.67584C101.845 6.12219 102.261 5.70496 102.813 5.70496H119.469C120.021 5.70496 120.437 6.12219 120.437 6.67584V8.64168C120.437 9.18195 120.029 9.57511 119.469 9.57511H113.16V30.3461C113.16 30.8971 112.779 31.2796 112.23 31.2796Z" fill="#15384E"/>
<path d="M67.6317 31.2983H65.4203C64.8708 31.2983 64.4894 30.9292 64.4894 30.3969V12.8863C57.4445 17.2887 56.7003 17.7541 56.5776 17.8182V17.8209C56.3509 17.9226 56.0841 17.9172 55.8707 17.8209V17.8182C55.7453 17.7514 54.9931 17.2833 47.9616 12.8863V30.3996C47.9616 30.9292 47.5775 31.301 47.0306 31.301H44.8193C44.2698 31.301 43.8883 30.9319 43.8883 30.3996V5.59796L56.2255 13.2554L68.5653 5.59796V30.3996C68.5627 30.9292 68.1785 31.2983 67.6317 31.2983Z" fill="#15384E"/>
<path d="M87.1015 31.2796C79.7898 31.2796 74.2761 25.7806 74.2761 18.4896C74.2761 11.1986 79.7898 5.69958 87.1015 5.69958C94.3917 5.69958 99.8921 11.1986 99.8921 18.4896C99.8894 25.7832 94.3917 31.2796 87.1015 31.2796ZM87.0828 9.5323C82.1559 9.5323 78.1467 13.5522 78.1467 18.4922C78.1467 23.4322 82.1559 27.4522 87.0828 27.4522C92.0096 27.4522 96.0189 23.4322 96.0189 18.4922C96.0189 13.5522 92.0096 9.5323 87.0828 9.5323Z" fill="#15384E"/>
<path d="M174.516 31.2796H165.601C165.041 31.2796 164.633 30.8864 164.633 30.3461V28.4873C164.633 27.9336 165.049 27.5164 165.601 27.5164H174.017C176.404 27.5164 177.615 26.5562 177.615 24.6599V24.125C177.615 22.1458 176.281 21.4129 173.659 20.6774L169.447 19.4605C165.78 18.3853 163.923 16.2028 163.923 12.9692V12.1454C163.923 8.35282 166.799 5.70496 170.917 5.70496H178.941C179.493 5.70496 179.909 6.12219 179.909 6.67584V8.53469C179.909 9.07496 179.501 9.46813 178.941 9.46813H171.381C169.106 9.46813 167.999 10.4016 167.999 12.3246V12.79C167.999 14.6809 169.122 15.0928 171.461 15.7749L175.991 17.0988C179.773 18.182 181.694 20.4741 181.694 23.911V24.8418C181.689 28.0406 179.224 31.2796 174.516 31.2796Z" fill="#15384E"/>
<path d="M182.971 50.4084V48.9293C182.982 48.7474 182.846 48.5896 182.665 48.5789C182.657 48.5789 182.651 48.5789 182.643 48.5789H181.243C181.053 48.5763 180.896 48.7287 180.893 48.9186C180.893 48.9213 180.893 48.9266 180.893 48.9293V50.4084C180.891 50.5902 181.035 50.74 181.216 50.7427C181.224 50.7427 181.235 50.7427 181.243 50.7427H182.643C182.817 50.7507 182.963 50.6197 182.971 50.4458C182.974 50.4351 182.971 50.4217 182.971 50.4084ZM179.621 46.5061V41.8897C179.621 39.3756 177.871 37.6879 175.262 37.6879H170.706C170.525 37.6853 170.375 37.8297 170.373 38.0116C170.373 38.0196 170.373 38.0303 170.373 38.0383V50.4084C170.359 50.5822 170.49 50.732 170.664 50.7427C170.677 50.7427 170.693 50.7427 170.706 50.7427H175.289C177.855 50.7427 179.648 48.9989 179.648 46.4874L179.621 46.5061ZM177.802 46.5061C177.802 48.1002 176.815 49.0844 175.15 49.0844H172.141V39.3435H175.148C176.791 39.3435 177.799 40.2957 177.799 41.8897C177.802 41.8897 177.802 46.5061 177.802 46.5061ZM168.439 45.0859V44.1712C168.449 43.9973 168.321 43.8476 168.148 43.8369C168.135 43.8369 168.121 43.8369 168.111 43.8369H166.409V42.2428C166.43 42.0716 166.307 41.9138 166.137 41.8924C166.131 41.8924 166.123 41.8924 166.118 41.8897C166.022 41.8951 165.929 41.9325 165.854 41.9914L164.792 42.7563C164.646 42.8686 164.571 43.0505 164.59 43.2351V43.8155H161.735C160.463 43.8155 159.7 43.219 159.7 42.2214V40.9135C159.7 39.849 160.431 39.2659 161.701 39.2659H163.675C163.843 39.2713 163.981 39.1402 163.987 38.9744C163.987 38.9664 163.987 38.961 163.987 38.953V38.0009C163.997 37.827 163.869 37.6772 163.696 37.6665C163.688 37.6665 163.683 37.6665 163.675 37.6665H161.551C159.372 37.6665 157.902 38.9423 157.902 40.8573V42.0957C157.822 43.1067 158.313 44.0776 159.175 44.6098C158.166 45.1929 157.566 46.2895 157.619 47.4556C157.721 49.5819 159.105 50.8524 161.333 50.8524H162.674C164.619 50.9567 166.281 49.4589 166.385 47.5091C166.39 47.4021 166.39 47.2951 166.388 47.1881V45.4336H168.089C168.271 45.4336 168.417 45.2865 168.42 45.1046C168.42 45.0966 168.42 45.0912 168.42 45.0832L168.439 45.0859ZM164.606 47.2497C164.606 48.4452 163.747 49.2503 162.458 49.2503H161.605C160.247 49.2503 159.441 48.5067 159.441 47.2497C159.511 46.113 160.327 45.4149 161.599 45.4149H164.6V47.2497H164.606ZM155.734 50.4833C155.731 50.4164 155.71 50.3522 155.67 50.296L152.885 45.233C154.472 44.773 155.563 43.3153 155.563 41.6597V41.4351C155.563 39.1804 153.973 37.6639 151.634 37.6639H146.792C146.611 37.6612 146.461 37.8056 146.459 37.9875C146.459 37.9955 146.459 38.0062 146.459 38.0142V50.3843C146.445 50.5582 146.576 50.7079 146.749 50.7186C146.763 50.7186 146.779 50.7186 146.792 50.7186H147.942C148.115 50.732 148.265 50.6009 148.275 50.4271C148.275 50.4137 148.275 50.3977 148.275 50.3843V45.4282H151.081L153.733 50.4485C153.821 50.6197 154.002 50.7267 154.194 50.7186H155.499C155.635 50.7373 155.76 50.6384 155.779 50.502C155.779 50.494 155.782 50.4859 155.782 50.4779L155.734 50.4833ZM151.279 43.778H148.278V39.3221H151.487C152.903 39.3221 153.746 40.1138 153.746 41.4484V41.6731C153.746 42.9756 152.802 43.7994 151.279 43.7994V43.778ZM138.205 50.387V49.3974C138.219 49.2235 138.088 49.0737 137.915 49.063C137.901 49.063 137.885 49.063 137.872 49.063H132.113V45.4149H137.856C138.045 45.4175 138.203 45.2651 138.205 45.0752C138.205 45.0725 138.205 45.0672 138.205 45.0645V44.1123C138.208 43.9331 138.067 43.786 137.888 43.7807C137.877 43.7807 137.867 43.7807 137.856 43.7807H132.113V39.3408H137.856C138.035 39.3569 138.189 39.2232 138.205 39.044C138.205 39.0333 138.205 39.0226 138.205 39.0119V38.0383C138.208 37.8484 138.056 37.6906 137.867 37.6879C137.864 37.6879 137.859 37.6879 137.856 37.6879H130.622C130.443 37.6853 130.296 37.827 130.291 38.0062C130.291 38.0169 130.291 38.0276 130.291 38.0383V50.4084C130.28 50.5822 130.408 50.732 130.582 50.7427C130.595 50.7427 130.608 50.7427 130.619 50.7427H137.869C138.043 50.7561 138.192 50.625 138.203 50.4512C138.203 50.4378 138.203 50.4217 138.203 50.4084L138.205 50.387ZM126.538 50.6919H126.746V37.9179C126.751 37.7976 126.66 37.696 126.54 37.6906C126.535 37.6906 126.53 37.6906 126.524 37.6906H125.071C124.948 37.6879 124.847 37.7842 124.841 37.9072C124.841 37.9126 124.841 37.9179 124.841 37.9233V44.3852C124.841 45.1019 124.916 47.3727 124.916 47.3727L120.552 44.6606H120.325L115.977 47.3727C115.977 47.3727 116.057 45.1019 116.057 44.3852V37.9233C116.073 37.811 115.993 37.7066 115.878 37.6906C115.868 37.6879 115.857 37.6879 115.844 37.6879H114.385C114.262 37.6826 114.158 37.7762 114.153 37.8992C114.153 37.9072 114.153 37.9126 114.153 37.9206V50.6839H114.361L120.475 46.8511L126.532 50.6839L126.538 50.6919Z" fill="#23BAD9"/>
</g>
<defs>
<clipPath id="clip0_1271_1651">
<rect width="182" height="52" fill="white"/>
</clipPath>
</defs>
</svg>
